<svg width="64" height="64" viewBox="0 0 64 64" fill="none" xmlns="http://www.w3.org/2000/svg">
  <rect width="64" height="64" rx="16" fill="#08070F"/>
  <path d="M32 10L49 20.5V43.5L32 54L15 43.5V20.5L32 10Z" stroke="url(#paint0_linear_1_2)" stroke-width="2.5"/>
  <path d="M22 43V22H30.5C34.9 22 38 24.7 38 28.5C38 31.2 36.4 33.2 33.9 34.1L39 43H34.4L29.9 35H26.2V43H22ZM26.2 31.5H30.1C32.5 31.5 33.8 30.4 33.8 28.6C33.8 26.8 32.5 25.7 30.1 25.7H26.2V31.5Z" fill="white"/>
  <defs>
    <linearGradient id="paint0_linear_1_2" x1="15" y1="14" x2="50.5" y2="49.5" gradientUnits="userSpaceOnUse">
      <stop stop-color="#8B5CF6"/>
      <stop offset="1" stop-color="#3B82F6"/>
    </linearGradient>
  </defs>
</svg>